<?xml version="1.0" encoding="utf-8"?>
<!-- Generator: Adobe Illustrator 19.0.0, SVG Export Plug-In . SVG Version: 6.00 Build 0)  -->
<svg version="1.1" id="Layer_1" xmlns="http://www.w3.org/2000/svg" xmlns:xlink="http://www.w3.org/1999/xlink" x="0px" y="0px"
	 viewBox="0 0 500 500" style="enable-background:new 0 0 500 500;" xml:space="preserve">
<style type="text/css">
	.st0{fill:#003979;}
</style>
<path id="XMLID_4_" class="st0" d="M253.4,243.6c9.2-19.5,17.5-36.9,25.7-54.4c11.6-24.8,22.9-49.8,35-74.4c2-4,7.6-8.6,11.6-8.6
	c4.1,0,9.7,4.4,12,8.4c29.1,50.9,56.9,102.6,86.8,153.1c19.5,32.8,42.1,63.8,62.7,96c3.2,5.1,5.3,12.9,3.7,18.2
	c-0.9,3.1-10.2,5.1-15.8,5.2c-150,0.3-299.9,0.2-449.9,0.2c-1.7,0-3.7,0.6-5-0.1c-4-2-9.5-3.6-11-7c-1.4-3.1,0.2-9.4,2.8-12.3
	c17.8-19.8,35.7-39.7,54.7-58.3c23.6-23.1,39.2-51.9,58-78.4c16-22.7,31.2-46.1,47-69.1c7.5-10.9,15-10.6,23,0.5
	c17.2,24,34.4,48.1,51.6,72.1C247.9,237,249.9,239.2,253.4,243.6z M390.5,365.1c0.5-0.8,1.1-1.7,1.6-2.5
	c-23.3-33.2-46.5-66.4-70.4-100.4c-19.2,22.9-37.5,44.5-55.5,66.2c-4.1,5-0.1,6.9,3.9,8.7c14.3,6.5,29,12.3,42.8,19.9
	C338.1,370.7,364.7,362.6,390.5,365.1z M173.1,255.5c-21.3,13-42.1,25.2-62.2,38.4c-3.9,2.6-8.5,10.4-7.2,13.7
	c7,18.7,15.6,36.7,24.6,56.9c22.4-29.5,43.7-57.4,65.2-85.7C186.7,271.2,180.4,263.9,173.1,255.5z M142.9,364.9
	c26.1,0,49,0.1,71.9-0.1c2.1,0,4.7-1.1,6.2-2.6c7-7.3,14-14.6,20.3-22.5c1.5-1.9,1.7-7.3,0.2-9c-13-14.5-26.6-28.6-40.5-43.3
	C182,312.9,163.3,337.7,142.9,364.9z M318.2,161.1c-2.5,2.8-3.4,3.5-3.8,4.3c-17.4,36.5-35.8,72.7-51.7,109.9
	c-5,11.8-3.3,26.5-4.9,41.6c4.1-1.8,5.3-1.9,5.9-2.6c14.9-17.8,29.2-36.1,44.7-53.3c7.7-8.6,9.5-17.7,9.4-28.6
	c-0.3-19.2,0.2-38.5,0.4-57.7C318.2,171,318.2,167.2,318.2,161.1z M188.8,192.3c-0.9,0.3-1.8,0.6-2.6,0.8
	c-2.1,16.2-4.4,32.4-6.2,48.6c-0.3,2.3,0.9,5.4,2.4,7.2c20,22.3,40.2,44.5,60.5,66.6c1,1.1,2.5,1.7,4.3,2.9c0.7-2.1,1.3-3.2,1.4-4.5
	c2.2-24,0.7-47-18.1-65.3c-1.7-1.6-2.9-3.7-4.3-5.6C213.7,226.1,201.3,209.2,188.8,192.3z M393.4,264.5c0.6-0.8,1.3-1.7,1.9-2.5
	c-20.6-36.7-41.2-73.3-61.8-110c-1,0.3-2,0.6-3,0.9c-0.2,3.5-0.6,7-0.7,10.5c-0.6,21.9-0.9,43.8-1.7,65.7
	c-0.8,19.3-1.1,19.4,17,23.8C361.2,256.8,377.3,260.6,393.4,264.5z M338.8,263.1c-0.3,0.9-0.6,1.7-0.9,2.6
	c21.2,30.1,42.4,60.2,63.5,90.2c1.1-0.4,2.1-0.8,3.1-1.2c1.4-22.3,3.3-44.5,3.9-66.8c0.1-3.3-5.1-8.2-8.9-9.9
	c-6.9-3-14.6-4.3-22.1-6.1C364.6,268.9,351.7,266.1,338.8,263.1z M115.9,364.5c-7.6-17.3-14.6-33.2-22.5-50.9
	c-16.6,17.3-31.6,33-46.6,48.7c0.6,0.7,1.2,1.5,1.9,2.2C70.5,364.5,92.2,364.5,115.9,364.5z M461.3,364.3
	c-13.7-20.6-26.6-39.7-39.4-58.9c-0.9,0.5-1.8,1-2.7,1.5c-1.4,18.9-2.8,37.8-4.2,57.4C430.2,364.3,444.5,364.3,461.3,364.3z
	 M172.4,205.9c-1-0.4-2-0.8-3.1-1.1c-13.7,20.4-27.5,40.7-41.2,61.1c0.9,0.8,1.7,1.5,2.6,2.3c12.1-7.4,24.3-14.8,36.4-22.4
	c1.4-0.9,2.3-3.2,2.5-5C170.7,229.2,171.5,217.5,172.4,205.9z M296.8,364.3c0.2-0.8,0.4-1.6,0.7-2.4c-13.2-6.2-26.4-12.4-39.8-18.4
	c-1.4-0.6-4.3-0.2-5.3,0.9c-5.6,6-10.8,12.4-17.2,19.9C257,364.3,276.9,364.3,296.8,364.3z"/>
</svg>
