<?xml version="1.0" encoding="iso-8859-1"?>
<!-- Generator: Adobe Illustrator 19.0.0, SVG Export Plug-In . SVG Version: 6.00 Build 0)  -->
<svg version="1.1" id="Layer_1" xmlns="http://www.w3.org/2000/svg" xmlns:xlink="http://www.w3.org/1999/xlink" x="0px" y="0px"
	 viewBox="1000 -1000 2500 2500" style="enable-background:new 1000 -1000 2500 2500;" xml:space="preserve">
<path style="fill:#FF6600;" d="M2249.981-972.375c-674.98,0-1222.355,547.366-1222.355,1222.365
	c0,134.91,21.869,264.682,62.246,386.098h365.585V-392.387L2250,402.157l794.524-794.544V636.079h365.586
	c40.405-121.416,62.274-251.188,62.274-386.099C3472.375-425.038,2924.99-972.375,2249.981-972.375"/>
<path style="fill:#4C4C4C;" d="M2067.284,584.835L1720.53,238.072v647.142h-515.059
	c214.584,352.034,602.125,587.122,1044.49,587.122s829.945-235.088,1044.5-587.122h-515.05V238.062l-346.753,346.753
	l-182.688,182.678l-182.668-182.669h-0.019V584.835z"/>
</svg>
